<svg width="60" height="60" viewBox="0 0 60 60" fill="none" xmlns="http://www.w3.org/2000/svg">
  <path fill-rule="evenodd" clip-rule="evenodd"
        d="M30 56.25L18.42 50.0756C15.1188 48.3193 12.3581 45.6972 10.4342 42.4907C8.5104 39.2842 7.49604 35.6144 7.50001 31.875V7.5C7.501 6.50574 7.89641 5.55249 8.59946 4.84945C9.3025 4.1464 10.2558 3.75099 11.25 3.75H48.75C49.7443 3.75099 50.6975 4.1464 51.4006 4.84945C52.1036 5.55249 52.499 6.50574 52.5 7.5V31.875C52.504 35.6144 51.4896 39.2842 49.5658 42.4907C47.6419 45.6972 44.8813 48.3193 41.58 50.0756L30 56.25ZM21.3938 26.25L26.25 31.1063L38.6063 18.75L41.25 21.3937L26.25 36.3937L18.75 28.8937L21.3938 26.25Z"
        fill="#FFFDFD"/>
</svg>
