<svg width="60" height="60" viewBox="0 0 60 60" fill="none" xmlns="http://www.w3.org/2000/svg">
<rect x="0.5" y="0.5" width="59" height="59" rx="9.5" fill="#F3F5FE" stroke="#E2E8F0"/>
<path fill-rule="evenodd" clip-rule="evenodd" d="M31.25 12.5H32.5C36.4782 12.5 40.2936 14.0804 43.1066 16.8934C45.9196 19.7064 47.5 23.5218 47.5 27.5V28.75H31.25V12.5ZM28.7425 12.5V31.2575H47.5025L47.2775 32.6975C46.5936 37.0454 44.2961 40.9757 40.8431 43.7048C37.3901 46.4339 33.0353 47.7613 28.647 47.4222C24.2588 47.0831 20.1596 45.1024 17.1669 41.8752C14.1741 38.648 12.5078 34.4113 12.5 30.01C12.5008 25.8368 13.9929 21.8012 16.7072 18.6313C19.4214 15.4614 23.1792 13.3658 27.3025 12.7225L28.7425 12.5ZM26.2425 32.1V15.49C23.64 16.1644 21.2666 17.5259 19.3706 19.432C17.4746 21.3381 16.1258 23.7187 15.4652 26.3247C14.8046 28.9308 14.8566 31.6665 15.6156 34.2455C16.3747 36.8246 17.813 39.1523 19.78 40.985L26.2425 32.1ZM21.75 42.5325C23.743 43.8434 26.02 44.6601 28.3919 44.9148C30.7638 45.1694 33.1622 44.8547 35.3881 43.9967C37.614 43.1387 39.6032 41.7622 41.1905 39.9814C42.7778 38.2007 43.9175 36.067 44.515 33.7575H28.13L21.75 42.5325Z" fill="#187AEC"/>
</svg>
