<svg width="40" height="40" viewBox="0 0 40 40" fill="none" xmlns="http://www.w3.org/2000/svg">
<path d="M28.3328 22.3333V27.3333C28.3328 34 25.6661 36.6666 18.9994 36.6666H12.6661C5.99943 36.6666 3.33276 34 3.33276 27.3333V21C3.33276 14.3333 5.99943 11.6666 12.6661 11.6666H17.6661" stroke="#187AEC" stroke-width="3" stroke-linecap="round" stroke-linejoin="round"/>
<path d="M28.3334 22.3333H23.0001C19.0001 22.3333 17.6667 21 17.6667 17V11.6666L28.3334 22.3333Z" stroke="#187AEC" stroke-width="3" stroke-linecap="round" stroke-linejoin="round"/>
<path d="M19.3333 3.33337H25.9999" stroke="#187AEC" stroke-width="3" stroke-linecap="round" stroke-linejoin="round"/>
<path d="M11.6731 8.33337C11.6731 5.56671 13.9064 3.33337 16.6731 3.33337H21.0398" stroke="#187AEC" stroke-width="3" stroke-linecap="round" stroke-linejoin="round"/>
<path d="M36.6672 13.3334V23.65C36.6672 26.2334 34.5672 28.3334 31.9839 28.3334" stroke="#187AEC" stroke-width="3" stroke-linecap="round" stroke-linejoin="round"/>
<path d="M36.6702 13.3334H31.6702C27.9202 13.3334 26.6702 12.0834 26.6702 8.33337V3.33337L36.6702 13.3334Z" stroke="#187AEC" stroke-width="3" stroke-linecap="round" stroke-linejoin="round"/>
</svg>
