<svg width="32" height="32" viewBox="0 0 32 32" fill="none" xmlns="http://www.w3.org/2000/svg">
<path d="M17.8881 22.9689C17.8881 20.6473 19.6481 19.3625 22.5185 17.4617C26.0289 15.1321 30.4001 12.2377 30.4001 5.3657C30.3993 5.21771 30.3692 5.07135 30.3117 4.93499C30.2542 4.79864 30.1704 4.67497 30.065 4.57107C29.9596 4.46718 29.8348 4.3851 29.6976 4.32954C29.5604 4.27398 29.4137 4.24603 29.2657 4.2473H23.7777C23.0033 2.8137 20.6913 1.2793 16.0001 1.2793C11.3057 1.2793 8.9969 2.8137 8.2209 4.2473H2.7313C2.58359 4.24645 2.43716 4.27471 2.30037 4.33046C2.16358 4.38621 2.03911 4.46836 1.93406 4.57221C1.82902 4.67607 1.74546 4.79959 1.68816 4.93574C1.63086 5.07189 1.60094 5.21799 1.6001 5.3657C1.6001 12.2377 5.9681 15.1321 9.4817 17.4601C12.3521 19.3609 14.1121 20.6457 14.1121 22.9673V25.0649C11.0977 25.3993 8.8817 26.5145 8.8817 27.8425C8.8817 29.4329 12.0689 30.7209 16.0001 30.7209C19.9313 30.7209 23.1185 29.4329 23.1185 27.8425C23.1185 26.5145 20.9025 25.3993 17.8881 25.0649V22.9689ZM22.3313 14.8793C23.2369 12.9609 23.9569 10.3577 24.0721 6.4857H28.0881C27.7041 10.8073 25.1089 12.9881 22.3313 14.8793ZM16.0001 3.2409C20.3713 3.2377 22.0785 5.0249 22.0769 5.6873C22.0769 6.3561 20.3713 8.1401 16.0001 8.1433C11.6289 8.1417 9.9217 6.3577 9.9217 5.6889C9.9201 5.0265 11.6289 3.2377 16.0001 3.2409ZM3.9121 6.4857H7.9265C8.0433 10.3577 8.7601 12.9609 9.6689 14.8793C6.8913 12.9881 4.2945 10.8073 3.9121 6.4857Z" fill="#1D1D1D"/>
</svg>
