<svg width="64" height="64" viewBox="0 0 64 64" fill="none" xmlns="http://www.w3.org/2000/svg">
<rect x="1.07692" y="1.07692" width="61.8462" height="61.8462" rx="30.9231" fill="#F7F7F7"/>
<rect x="1.07692" y="1.07692" width="61.8462" height="61.8462" rx="30.9231" stroke="#E2E8F0" stroke-width="1.84615"/>
<g clip-path="url(#clip0_3311_3097)">
<path d="M42.876 21.7418C40.8757 20.8239 38.7306 20.1477 36.4878 19.7604C36.4469 19.7529 36.4061 19.7716 36.3851 19.809C36.1092 20.2996 35.8037 20.9398 35.5897 21.4429C33.1774 21.0817 30.7775 21.0817 28.4147 21.4429C28.2006 20.9286 27.8839 20.2996 27.6068 19.809C27.5858 19.7729 27.545 19.7542 27.5041 19.7604C25.2626 20.1465 23.1175 20.8227 21.1159 21.7418C21.0986 21.7493 21.0837 21.7617 21.0739 21.7779C17.0051 27.8565 15.8905 33.7857 16.4373 39.6415C16.4398 39.6701 16.4559 39.6975 16.4781 39.7149C19.1626 41.6863 21.7629 42.8831 24.315 43.6764C24.3558 43.6889 24.3991 43.6739 24.4251 43.6403C25.0288 42.8159 25.5669 41.9466 26.0283 41.0325C26.0555 40.979 26.0296 40.9155 25.9739 40.8943C25.1203 40.5705 24.3076 40.1757 23.5257 39.7274C23.4639 39.6913 23.4589 39.6028 23.5158 39.5605C23.6804 39.4372 23.8449 39.3089 24.002 39.1794C24.0304 39.1557 24.07 39.1508 24.1035 39.1657C29.2398 41.5107 34.8004 41.5107 39.8761 39.1657C39.9095 39.1495 39.9491 39.1545 39.9788 39.1782C40.1359 39.3077 40.3005 39.4372 40.4662 39.5605C40.5231 39.6028 40.5194 39.6913 40.4576 39.7274C39.6757 40.1844 38.8629 40.5705 38.0081 40.893C37.9525 40.9142 37.9277 40.979 37.955 41.0325C38.4263 41.9454 38.9644 42.8146 39.5569 43.6391C39.5817 43.6739 39.6262 43.6889 39.6671 43.6764C42.2315 42.8831 44.8318 41.6863 47.5163 39.7149C47.5398 39.6975 47.5546 39.6713 47.5571 39.6427C48.2115 32.8729 46.461 26.9923 42.9168 21.7791C42.9082 21.7617 42.8934 21.7493 42.876 21.7418ZM26.7953 36.0759C25.249 36.0759 23.9748 34.6563 23.9748 32.9127C23.9748 31.1692 25.2243 29.7495 26.7953 29.7495C28.3788 29.7495 29.6406 31.1817 29.6158 32.9127C29.6158 34.6563 28.3664 36.0759 26.7953 36.0759ZM37.2238 36.0759C35.6775 36.0759 34.4033 34.6563 34.4033 32.9127C34.4033 31.1692 35.6527 29.7495 37.2238 29.7495C38.8073 29.7495 40.0691 31.1817 40.0444 32.9127C40.0444 34.6563 38.8073 36.0759 37.2238 36.0759Z" fill="#263040"/>
</g>
<defs>
<clipPath id="clip0_3311_3097">
<rect width="31.3846" height="31.3846" fill="white" transform="translate(16.3076 16.3076)"/>
</clipPath>
</defs>
</svg>
