<svg width="64" height="64" viewBox="0 0 64 64" fill="none" xmlns="http://www.w3.org/2000/svg">
<rect x="1.07692" y="1.07692" width="61.8462" height="61.8462" rx="30.9231" fill="#F7F7F7"/>
<rect x="1.07692" y="1.07692" width="61.8462" height="61.8462" rx="30.9231" stroke="#E2E8F0" stroke-width="1.84615"/>
<path d="M39.8461 18.6616H24.1538C19.4461 18.6616 16.3076 21.0155 16.3076 26.5078V37.4924C16.3076 42.9847 19.4461 45.3385 24.1538 45.3385H39.8461C44.5538 45.3385 47.6922 42.9847 47.6922 37.4924V26.5078C47.6922 21.0155 44.5538 18.6616 39.8461 18.6616ZM40.5836 28.2182L35.6719 32.1413C34.6362 32.973 33.3181 33.381 31.9999 33.381C30.6818 33.381 29.3479 32.973 28.3279 32.1413L23.4162 28.2182C22.9141 27.8102 22.8356 27.057 23.2279 26.5549C23.6359 26.0527 24.3735 25.9585 24.8756 26.3665L29.7873 30.2896C30.9799 31.2469 33.0042 31.2469 34.1968 30.2896L39.1085 26.3665C39.6107 25.9585 40.3639 26.037 40.7562 26.5549C41.1642 27.057 41.0858 27.8102 40.5836 28.2182Z" fill="#263040"/>
</svg>
