<svg width="64" height="64" viewBox="0 0 64 64" fill="none" xmlns="http://www.w3.org/2000/svg">
<rect x="1.07692" y="1.07692" width="61.8462" height="61.8462" rx="30.9231" fill="#F7F7F7"/>
<rect x="1.07692" y="1.07692" width="61.8462" height="61.8462" rx="30.9231" stroke="#E2E8F0" stroke-width="1.84615"/>
<g clip-path="url(#clip0_3311_3099)">
<path d="M31.9999 15.3845C22.8236 15.3845 15.3845 22.8236 15.3845 31.9999C15.3845 39.7919 20.7493 46.3303 27.9863 48.1261V37.0776H24.5602V31.9999H27.9863V29.812C27.9863 24.1568 30.5457 21.5355 36.0979 21.5355C37.1507 21.5355 38.9671 21.7422 39.7101 21.9483V26.5507C39.318 26.5095 38.6368 26.4889 37.7907 26.4889C35.0664 26.4889 34.0137 27.5211 34.0137 30.2041V31.9999H39.4409L38.5085 37.0776H34.0137V48.4937C42.241 47.5001 48.616 40.495 48.616 31.9999C48.6153 22.8236 41.1763 15.3845 31.9999 15.3845Z" fill="#263040"/>
</g>
<defs>
<clipPath id="clip0_3311_3099">
<rect width="33.2308" height="33.2308" fill="white" transform="translate(15.3845 15.3845)"/>
</clipPath>
</defs>
</svg>
