<svg width="60" height="60" viewBox="0 0 60 60" fill="none" xmlns="http://www.w3.org/2000/svg">
  <path fill-rule="evenodd" clip-rule="evenodd"
        d="M44 14V24H50C51.5913 24 53.1174 24.6321 54.2426 25.7574C55.3679 26.8826 56 28.4087 56 30V54C56 55.5913 55.3679 57.1174 54.2426 58.2426C53.1174 59.3679 51.5913 60 50 60H10C8.4087 60 6.88258 59.3679 5.75736 58.2426C4.63214 57.1174 4 55.5913 4 54V30C4 28.4087 4.63214 26.8826 5.75736 25.7574C6.88258 24.6321 8.4087 24 10 24H16V14C16 10.287 17.475 6.72601 20.1005 4.1005C22.726 1.475 26.287 0 30 0C33.713 0 37.274 1.475 39.8995 4.1005C42.525 6.72601 44 10.287 44 14ZM20 14C20 11.3478 21.0536 8.8043 22.9289 6.92893C24.8043 5.05357 27.3478 4 30 4C32.6522 4 35.1957 5.05357 37.0711 6.92893C38.9464 8.8043 40 11.3478 40 14V24H20V14Z"
        fill="#FFFDFD"/>
</svg>
