<svg width="64" height="64" viewBox="0 0 64 64" fill="none" xmlns="http://www.w3.org/2000/svg">
<rect x="1.07692" y="1.07692" width="61.8462" height="61.8462" rx="30.9231" fill="#F7F7F7"/>
<rect x="1.07692" y="1.07692" width="61.8462" height="61.8462" rx="30.9231" stroke="#E2E8F0" stroke-width="1.84615"/>
<g clip-path="url(#clip0_3311_3093)">
<path d="M31.9999 19.8903C35.9461 19.8903 36.4134 19.9076 37.9653 19.9769C39.4076 20.0403 40.1865 20.2826 40.7057 20.4846C41.3923 20.7499 41.8884 21.073 42.4019 21.5865C42.9211 22.1057 43.2384 22.5961 43.5038 23.2826C43.7057 23.8019 43.948 24.5865 44.0115 26.023C44.0807 27.5807 44.098 28.048 44.098 31.9884C44.098 35.9346 44.0807 36.4019 44.0115 37.9538C43.948 39.3961 43.7057 40.1749 43.5038 40.6942C43.2384 41.3807 42.9153 41.8769 42.4019 42.3903C41.8826 42.9096 41.3923 43.2269 40.7057 43.4923C40.1865 43.6942 39.4019 43.9365 37.9653 43.9999C36.4076 44.0692 35.9403 44.0865 31.9999 44.0865C28.0538 44.0865 27.5865 44.0692 26.0346 43.9999C24.5923 43.9365 23.8134 43.6942 23.2942 43.4923C22.6076 43.2269 22.1115 42.9038 21.598 42.3903C21.0788 41.8711 20.7615 41.3807 20.4961 40.6942C20.2942 40.1749 20.0519 39.3903 19.9884 37.9538C19.9192 36.3961 19.9019 35.9288 19.9019 31.9884C19.9019 28.0423 19.9192 27.5749 19.9884 26.023C20.0519 24.5807 20.2942 23.8019 20.4961 23.2826C20.7615 22.5961 21.0846 22.0999 21.598 21.5865C22.1173 21.0673 22.6076 20.7499 23.2942 20.4846C23.8134 20.2826 24.598 20.0403 26.0346 19.9769C27.5865 19.9076 28.0538 19.8903 31.9999 19.8903ZM31.9999 17.2307C27.9903 17.2307 27.4884 17.248 25.9134 17.3173C24.3442 17.3865 23.2653 17.6403 22.3307 18.0038C21.3557 18.3846 20.5307 18.8865 19.7115 19.7115C18.8865 20.5307 18.3846 21.3557 18.0038 22.3249C17.6403 23.2653 17.3865 24.3384 17.3173 25.9076C17.248 27.4884 17.2307 27.9903 17.2307 31.9999C17.2307 36.0096 17.248 36.5115 17.3173 38.0865C17.3865 39.6557 17.6403 40.7346 18.0038 41.6692C18.3846 42.6442 18.8865 43.4692 19.7115 44.2884C20.5307 45.1076 21.3557 45.6153 22.3249 45.9903C23.2653 46.3538 24.3384 46.6076 25.9076 46.6769C27.4826 46.7461 27.9846 46.7634 31.9942 46.7634C36.0038 46.7634 36.5057 46.7461 38.0807 46.6769C39.6499 46.6076 40.7288 46.3538 41.6634 45.9903C42.6326 45.6153 43.4576 45.1076 44.2769 44.2884C45.0961 43.4692 45.6038 42.6442 45.9788 41.6749C46.3423 40.7346 46.5961 39.6615 46.6653 38.0923C46.7346 36.5173 46.7519 36.0153 46.7519 32.0057C46.7519 27.9961 46.7346 27.4942 46.6653 25.9192C46.5961 24.3499 46.3423 23.2711 45.9788 22.3365C45.6153 21.3557 45.1134 20.5307 44.2884 19.7115C43.4692 18.8923 42.6442 18.3846 41.6749 18.0096C40.7346 17.6461 39.6615 17.3923 38.0923 17.323C36.5115 17.248 36.0096 17.2307 31.9999 17.2307Z" fill="#263040"/>
<path d="M31.9999 24.4133C27.8114 24.4133 24.4133 27.8114 24.4133 31.9999C24.4133 36.1883 27.8114 39.5864 31.9999 39.5864C36.1883 39.5864 39.5864 36.1883 39.5864 31.9999C39.5864 27.8114 36.1883 24.4133 31.9999 24.4133ZM31.9999 36.921C29.2826 36.921 27.0787 34.7172 27.0787 31.9999C27.0787 29.2826 29.2826 27.0787 31.9999 27.0787C34.7172 27.0787 36.921 29.2826 36.921 31.9999C36.921 34.7172 34.7172 36.921 31.9999 36.921Z" fill="#263040"/>
<path d="M41.6575 24.1134C41.6575 25.0942 40.8614 25.8846 39.8864 25.8846C38.9056 25.8846 38.1152 25.0884 38.1152 24.1134C38.1152 23.1327 38.9114 22.3423 39.8864 22.3423C40.8614 22.3423 41.6575 23.1384 41.6575 24.1134Z" fill="#263040"/>
</g>
<defs>
<clipPath id="clip0_3311_3093">
<rect width="29.5385" height="29.5385" fill="white" transform="translate(17.2307 17.2307)"/>
</clipPath>
</defs>
</svg>
