<svg width="64" height="64" viewBox="0 0 64 64" fill="none" xmlns="http://www.w3.org/2000/svg">
<rect x="1.07692" y="1.07692" width="61.8462" height="61.8462" rx="30.9231" fill="#F7F7F7"/>
<rect x="1.07692" y="1.07692" width="61.8462" height="61.8462" rx="30.9231" stroke="#E2E8F0" stroke-width="1.84615"/>
<g clip-path="url(#clip0_3311_3101)">
<path d="M45.369 17.6924H18.6247C17.3436 17.6924 16.3076 18.7038 16.3076 19.9543V46.809C16.3076 48.0595 17.3436 49.077 18.6247 49.077H45.369C46.6502 49.077 47.6922 48.0595 47.6922 46.8151V19.9543C47.6922 18.7038 46.6502 17.6924 45.369 17.6924ZM25.6188 44.4367H20.9601V29.4555H25.6188V44.4367ZM23.2895 27.4143C21.7938 27.4143 20.5862 26.2067 20.5862 24.7171C20.5862 23.2276 21.7938 22.02 23.2895 22.02C24.779 22.02 25.9866 23.2276 25.9866 24.7171C25.9866 26.2006 24.779 27.4143 23.2895 27.4143ZM43.052 44.4367H38.3994V37.1545C38.3994 35.4198 38.3688 33.1824 35.9782 33.1824C33.5569 33.1824 33.1891 35.0765 33.1891 37.0319V44.4367H28.5427V29.4555H33.0052V31.5028H33.0665C33.6856 30.3259 35.2058 29.0816 37.4677 29.0816C42.1815 29.0816 43.052 32.1832 43.052 36.2167V44.4367Z" fill="#263040"/>
</g>
<defs>
<clipPath id="clip0_3311_3101">
<rect width="31.3846" height="31.3846" fill="white" transform="translate(16.3076 17.6924)"/>
</clipPath>
</defs>
</svg>
