<svg width="163" height="38" viewBox="0 0 163 38" fill="none" xmlns="http://www.w3.org/2000/svg">
<rect y="1.08923" width="35.8216" height="35.8216" rx="17.9108" fill="url(#paint0_linear_7912_26096)"/>
<path opacity="0.9" d="M15.407 25.7455C13.7313 25.2981 12.2555 24.4126 11.0939 23.232C9.68477 21.8038 8.73266 20.0519 8.4375 17.9953V6.49377H11.3034C12.8077 6.49377 13.9598 7.73152 13.9407 9.24539L13.7789 22.5084C13.7789 22.6321 13.7789 22.7464 13.7979 22.8606C13.817 23.1177 13.8646 23.3748 13.9407 23.6128C13.9788 23.7366 14.0169 23.8604 14.0645 23.9746C14.0645 23.9937 14.0835 24.0222 14.0931 24.0413C14.0931 24.0603 14.1121 24.0793 14.1216 24.0984C14.1883 24.2603 14.274 24.4126 14.3597 24.5649C14.3597 24.5744 14.3692 24.5935 14.3787 24.603C14.4644 24.7458 14.5691 24.8886 14.6739 25.0219C14.7976 25.1743 14.9214 25.3171 15.0642 25.4409C15.1785 25.5456 15.2927 25.6408 15.4165 25.736L15.407 25.7455Z" fill="url(#paint1_linear_7912_26096)"/>
<path opacity="0.9" d="M27.3748 18.0148V21.9565C27.3748 27.1836 23.176 31.4777 17.9394 31.5062C12.7123 31.5253 8.42773 27.2598 8.42773 22.0422V18.0433C8.8181 19.9761 9.83687 21.9946 11.1698 23.3085C11.1984 23.3371 11.227 23.3657 11.265 23.3942C12.9979 25.0509 15.3496 26.0601 17.9108 26.0601C17.9394 26.0601 17.9679 26.0601 17.9965 26.0601C20.5196 26.0411 22.8332 25.0414 24.5566 23.3942C24.5947 23.3561 24.6327 23.3181 24.6804 23.28C26.08 21.8994 27.0606 20.0713 27.3939 18.0148H27.3748Z" fill="url(#paint2_linear_7912_26096)"/>
<path opacity="0.9" d="M26.9654 17.215C26.4512 21.3377 23.3569 23.8418 21.2812 24.851C21.7668 24.175 22.0429 23.3372 22.0334 22.5088C22.0144 21.0902 21.9192 13.7017 21.9192 13.7017C21.9192 13.6541 21.9192 13.616 21.9192 13.5684C22.2524 10.6264 25.5943 10.7978 27.3748 11.2358C26.5369 11.5785 27.1558 15.6155 26.9654 17.215Z" fill="url(#paint3_linear_7912_26096)"/>
<path d="M27.3841 18.0245V22.0329C25.9369 26.0318 22.1475 28.6882 17.9106 28.6882C13.6736 28.6882 9.88423 26.0318 8.43701 22.0425V18.0531C8.81786 19.9859 9.83662 22.0044 11.1696 23.3183C11.2077 23.3469 11.2362 23.3754 11.2648 23.404C12.9976 25.0702 15.3494 26.0699 17.9106 26.0699H17.9963C20.5194 26.0509 22.833 25.0511 24.5468 23.404C24.5944 23.3659 24.6325 23.3278 24.6706 23.2897C26.0702 21.8996 27.0414 20.0811 27.3841 18.0245Z" fill="url(#paint4_linear_7912_26096)"/>
<path d="M17.9013 26.0603C13.1978 26.0603 9.17991 22.6231 8.42773 17.9482C8.98948 22.785 13.0645 26.4411 17.9013 26.4411C22.738 26.4411 26.8131 22.7945 27.3748 17.9482C26.6227 22.6231 22.6047 26.0603 17.9013 26.0603Z" fill="url(#paint5_linear_7912_26096)"/>
<path opacity="0.9" d="M26.965 17.2152C26.6984 19.3289 25.7653 21.0142 24.6323 22.29V11.036C25.6035 10.9122 26.6222 11.055 27.3744 11.2359C26.5461 11.5692 27.165 15.6157 26.965 17.2152Z" fill="url(#paint6_linear_7912_26096)"/>
<path opacity="0.9" d="M8.42773 18.0051V17.9385C8.43726 18.0432 8.4563 18.1479 8.47534 18.2432C8.4563 18.167 8.43726 18.0908 8.42773 18.0051Z" fill="url(#paint7_linear_7912_26096)"/>
<path opacity="0.9" d="M11.2936 6.49377L11.2365 23.3462C9.78926 21.9466 8.7705 20.0614 8.42773 17.9382V6.49377H11.2936Z" fill="url(#paint8_linear_7912_26096)"/>
<path d="M48.0607 17.216C45.2167 17.216 43.2007 15.164 43.2007 12.248V5.3H45.8647V12.104C45.8647 13.58 46.7827 14.624 48.0607 14.624C49.3387 14.624 50.2567 13.58 50.2567 12.104V5.3H52.9207V12.248C52.9207 15.164 50.9047 17.216 48.0607 17.216ZM54.5754 17V8H56.4834L56.9334 9.404C57.4014 8.468 58.4814 7.784 59.7234 7.784C61.6134 7.784 62.9634 9.314 62.9634 11.456V17H60.4434V11.96C60.4434 10.952 59.7954 10.232 58.8234 10.232C57.8154 10.232 57.0954 11.006 57.0954 12.104V17H54.5754ZM64.6485 17V5.3H70.6605C72.3705 5.3 73.5765 6.506 73.5765 8.216C73.5765 9.476 72.8025 10.52 71.5965 10.88C73.1085 11.168 74.0805 12.32 74.0805 13.832C74.0805 15.686 72.7845 17 70.9485 17H64.6485ZM67.3125 14.624H70.0125C70.7865 14.624 71.3445 14.066 71.3445 13.292C71.3445 12.518 70.8045 11.96 70.0485 11.96H67.3125V14.624ZM67.3125 10.088H69.6885C70.4085 10.088 70.9125 9.584 70.9125 8.864C70.9125 8.144 70.4265 7.64 69.7245 7.64H67.3125V10.088ZM79.5815 17.216C76.8995 17.216 75.0095 15.254 75.0095 12.5C75.0095 9.746 76.8995 7.784 79.5815 7.784C82.2635 7.784 84.1535 9.746 84.1535 12.5C84.1535 15.254 82.2635 17.216 79.5815 17.216ZM79.5815 14.804C80.7335 14.804 81.5615 13.85 81.5615 12.482C81.5615 11.114 80.7335 10.16 79.5815 10.16C78.4295 10.16 77.6015 11.114 77.6015 12.482C77.6015 13.85 78.4295 14.804 79.5815 14.804ZM88.6458 17.216C86.7558 17.216 85.4058 15.722 85.4058 13.616V8H87.9258V13.04C87.9258 14.03 88.5918 14.732 89.5098 14.732C90.4458 14.732 91.1298 13.958 91.1298 12.896V8H93.6498V15.2L93.6858 17H91.7058L91.2018 15.74C90.7698 16.622 89.7798 17.216 88.6458 17.216ZM95.3743 17V8H97.2823L97.7323 9.404C98.2003 8.468 99.2803 7.784 100.522 7.784C102.412 7.784 103.762 9.314 103.762 11.456V17H101.242V11.96C101.242 10.952 100.594 10.232 99.6223 10.232C98.6143 10.232 97.8943 11.006 97.8943 12.104V17H95.3743ZM108.975 17.216C106.653 17.216 105.015 15.272 105.015 12.536C105.015 9.746 106.653 7.784 108.975 7.784C110.019 7.784 110.901 8.216 111.567 8.954V4.76H114.087V15.2L114.123 17H112.143L111.711 15.866C111.045 16.712 110.091 17.216 108.975 17.216ZM109.587 14.768C110.739 14.768 111.567 13.814 111.567 12.482C111.567 11.15 110.739 10.196 109.587 10.196C108.435 10.196 107.607 11.15 107.607 12.482C107.607 13.814 108.435 14.768 109.587 14.768ZM118.664 17L122.732 11.132L118.736 5.3H122.192L124.208 8.936L126.08 5.3H129.464L125.684 11.024L129.752 17H126.26L124.208 13.256L122.12 17H118.664Z" fill="#263040"/>
<path opacity="0.5" d="M46.5847 34.144C44.3767 34.144 42.8047 32.452 42.8047 30.1C42.8047 27.748 44.3647 26.056 46.5367 26.056C48.3007 26.056 49.6807 27.22 49.9087 28.78L48.5767 29.188C48.3967 28.084 47.5687 27.328 46.5487 27.328C45.2047 27.328 44.2327 28.492 44.2327 30.1C44.2327 31.696 45.2047 32.836 46.5847 32.836C47.6887 32.836 48.5167 32.068 48.6487 30.94L50.0047 31.456C49.6927 33.052 48.3367 34.144 46.5847 34.144ZM53.7377 34.144C51.9737 34.144 50.7257 32.836 50.7257 31C50.7257 29.164 51.9737 27.856 53.7377 27.856C55.5017 27.856 56.7617 29.164 56.7617 31C56.7617 32.836 55.5017 34.144 53.7377 34.144ZM53.7377 32.908C54.7337 32.908 55.4537 32.116 55.4537 31C55.4537 29.86 54.7337 29.056 53.7377 29.056C52.7417 29.056 52.0337 29.86 52.0337 31C52.0337 32.116 52.7417 32.908 53.7377 32.908ZM57.788 34V28H58.796L58.988 28.984C59.312 28.312 60.068 27.856 60.932 27.856C62.252 27.856 63.188 28.9 63.188 30.328V34H61.928V30.532C61.928 29.692 61.376 29.092 60.572 29.092C59.696 29.092 59.048 29.776 59.048 30.736V34H57.788ZM64.456 34V28H65.464L65.656 28.984C65.98 28.312 66.736 27.856 67.6 27.856C68.92 27.856 69.856 28.9 69.856 30.328V34H68.596V30.532C68.596 29.692 68.044 29.092 67.24 29.092C66.364 29.092 65.716 29.776 65.716 30.736V34H64.456ZM73.7999 34.144C72.0359 34.144 70.7999 32.836 70.7999 31C70.7999 29.164 72.0119 27.856 73.7159 27.856C75.6239 27.856 76.7279 29.488 76.5599 31.396H72.1439C72.2999 32.308 72.9479 32.92 73.8119 32.92C74.4959 32.92 75.0479 32.536 75.1919 31.972L76.4759 32.428C76.1639 33.448 75.0959 34.144 73.7999 34.144ZM72.1559 30.46H75.2399C75.1199 29.62 74.4959 29.056 73.7159 29.056C72.9239 29.056 72.3239 29.62 72.1559 30.46ZM80.2441 34.144C78.5161 34.144 77.2921 32.836 77.2921 31.012C77.2921 29.164 78.5041 27.856 80.2201 27.856C81.6121 27.856 82.7281 28.744 82.9081 29.992L81.6601 30.376C81.5401 29.596 80.9521 29.056 80.2081 29.056C79.2721 29.056 78.6241 29.872 78.6241 30.988C78.6241 32.116 79.2961 32.908 80.2441 32.908C81.0241 32.908 81.6241 32.368 81.7081 31.528L83.0041 31.936C82.7881 33.268 81.6481 34.144 80.2441 34.144ZM87.004 34.012C85.756 34.396 84.292 34.012 84.292 32.488V29.164H83.392V28H83.74C84.112 28 84.352 27.724 84.352 27.304V26.404H85.552V28H86.932V29.164H85.552V32.2C85.552 32.896 86.212 33.088 86.86 32.848L87.004 34.012ZM88.5046 34.096C88.0006 34.096 87.6286 33.712 87.6286 33.196C87.6286 32.668 88.0006 32.296 88.5046 32.296C89.0206 32.296 89.3806 32.668 89.3806 33.196C89.3806 33.712 89.0206 34.096 88.5046 34.096ZM96.0369 34.144C94.2009 34.144 92.8329 33.088 92.7489 31.612L94.2609 31.264C94.3089 32.212 95.0289 32.908 96.0969 32.908C96.9009 32.908 97.5729 32.5 97.5729 31.852C97.5729 30.148 93.0849 30.592 93.0849 28.132C93.0849 26.884 94.2369 26.056 95.8209 26.056C97.4169 26.056 98.6169 26.92 98.7609 28.168L97.2969 28.54C97.2129 27.808 96.6009 27.256 95.7489 27.256C95.0649 27.256 94.4889 27.628 94.4889 28.18C94.4889 29.716 99.0129 29.26 99.0129 31.864C99.0129 33.208 97.8009 34.144 96.0369 34.144ZM100.081 34V25.84H101.341V28.864C101.677 28.252 102.385 27.856 103.201 27.856C104.533 27.856 105.481 28.9 105.481 30.328V34H104.221V30.532C104.221 29.692 103.657 29.092 102.865 29.092C101.989 29.092 101.341 29.776 101.341 30.736V34H100.081ZM108.393 34.144C107.217 34.144 106.425 33.436 106.425 32.392C106.425 31.588 107.049 30.916 107.997 30.736L109.893 30.364C110.073 30.34 110.193 30.208 110.193 30.052C110.193 29.44 109.749 28.996 109.125 28.996C108.477 28.996 107.973 29.452 107.925 30.136L106.629 29.824C106.821 28.672 107.829 27.856 109.065 27.856C110.457 27.856 111.453 28.792 111.453 30.088V32.8L111.477 34H110.481L110.265 33.184C109.893 33.772 109.209 34.144 108.393 34.144ZM107.781 32.224C107.781 32.656 108.129 32.944 108.705 32.944C109.545 32.944 110.193 32.332 110.193 31.432V31.156C110.073 31.18 109.941 31.216 109.809 31.24L108.501 31.48C108.057 31.564 107.781 31.852 107.781 32.224ZM112.726 34V28H113.746L113.926 28.876C114.214 28.048 115.174 27.652 116.122 27.976L116.002 29.404C115.066 28.948 113.986 29.32 113.986 30.556V34H112.726ZM119.503 34.144C117.739 34.144 116.503 32.836 116.503 31C116.503 29.164 117.715 27.856 119.419 27.856C121.327 27.856 122.431 29.488 122.263 31.396H117.847C118.003 32.308 118.651 32.92 119.515 32.92C120.199 32.92 120.751 32.536 120.895 31.972L122.179 32.428C121.867 33.448 120.799 34.144 119.503 34.144ZM117.859 30.46H120.943C120.823 29.62 120.199 29.056 119.419 29.056C118.627 29.056 118.027 29.62 117.859 30.46ZM123.895 34.096C123.391 34.096 123.019 33.712 123.019 33.196C123.019 32.668 123.391 32.296 123.895 32.296C124.411 32.296 124.771 32.668 124.771 33.196C124.771 33.712 124.411 34.096 123.895 34.096ZM128.488 34V26.2H129.82V34H128.488ZM131.194 34V28H132.202L132.394 28.984C132.718 28.312 133.474 27.856 134.338 27.856C135.658 27.856 136.594 28.9 136.594 30.328V34H135.334V30.532C135.334 29.692 134.782 29.092 133.978 29.092C133.102 29.092 132.454 29.776 132.454 30.736V34H131.194ZM139.27 34L137.026 28H138.466L140.038 32.74L141.574 28H142.966L140.782 34H139.27ZM146.198 34.144C144.434 34.144 143.198 32.836 143.198 31C143.198 29.164 144.41 27.856 146.114 27.856C148.022 27.856 149.126 29.488 148.958 31.396H144.542C144.698 32.308 145.346 32.92 146.21 32.92C146.894 32.92 147.446 32.536 147.59 31.972L148.874 32.428C148.562 33.448 147.494 34.144 146.198 34.144ZM144.554 30.46H147.638C147.518 29.62 146.894 29.056 146.114 29.056C145.322 29.056 144.722 29.62 144.554 30.46ZM152.271 34.144C150.795 34.144 149.691 33.34 149.595 32.224L151.035 31.888C151.071 32.536 151.623 33.016 152.355 33.016C152.919 33.016 153.339 32.716 153.339 32.284C153.339 31.048 149.883 31.516 149.883 29.536C149.883 28.54 150.807 27.856 152.115 27.856C153.459 27.856 154.431 28.552 154.527 29.524L153.159 29.836C153.147 29.308 152.703 28.948 152.079 28.948C151.551 28.948 151.191 29.212 151.191 29.596C151.191 30.796 154.695 30.304 154.695 32.332C154.695 33.388 153.687 34.144 152.271 34.144ZM158.688 34.012C157.44 34.396 155.976 34.012 155.976 32.488V29.164H155.076V28H155.424C155.796 28 156.036 27.724 156.036 27.304V26.404H157.236V28H158.616V29.164H157.236V32.2C157.236 32.896 157.896 33.088 158.544 32.848L158.688 34.012ZM160.188 34.096C159.684 34.096 159.312 33.712 159.312 33.196C159.312 32.668 159.684 32.296 160.188 32.296C160.704 32.296 161.064 32.668 161.064 33.196C161.064 33.712 160.704 34.096 160.188 34.096Z" fill="#263040"/>
<defs>
<linearGradient id="paint0_linear_7912_26096" x1="-15.406" y1="7.45452" x2="57.3055" y2="32.6553" gradientUnits="userSpaceOnUse">
<stop offset="0.26" stop-color="#FEB600"/>
<stop offset="0.4" stop-color="#B32E71"/>
<stop offset="0.54" stop-color="#93079D"/>
<stop offset="0.67" stop-color="#08C0F9"/>
</linearGradient>
<linearGradient id="paint1_linear_7912_26096" x1="11.9222" y1="3.36131" x2="11.9222" y2="23.9365" gradientUnits="userSpaceOnUse">
<stop stop-color="white" stop-opacity="0.9"/>
<stop offset="0.29" stop-color="white" stop-opacity="0.85"/>
<stop offset="0.75" stop-color="#F2F2F2" stop-opacity="0.6"/>
<stop offset="1" stop-color="#F2F2F2" stop-opacity="0.45"/>
</linearGradient>
<linearGradient id="paint2_linear_7912_26096" x1="17.9013" y1="22.4231" x2="17.9013" y2="32.9535" gradientUnits="userSpaceOnUse">
<stop stop-color="white" stop-opacity="0.9"/>
<stop offset="0.29" stop-color="white" stop-opacity="0.7"/>
<stop offset="0.75" stop-color="#F2F2F2" stop-opacity="0.65"/>
<stop offset="1" stop-color="#F2F2F2" stop-opacity="0.35"/>
</linearGradient>
<linearGradient id="paint3_linear_7912_26096" x1="24.328" y1="9.34105" x2="24.328" y2="23.2039" gradientUnits="userSpaceOnUse">
<stop stop-color="white" stop-opacity="0.9"/>
<stop offset="0.29" stop-color="white" stop-opacity="0.75"/>
<stop offset="0.75" stop-color="#F2F2F2" stop-opacity="0.6"/>
<stop offset="1" stop-color="#F2F2F2" stop-opacity="0.45"/>
</linearGradient>
<linearGradient id="paint4_linear_7912_26096" x1="17.9106" y1="28.6025" x2="17.9106" y2="13.6353" gradientUnits="userSpaceOnUse">
<stop stop-color="white" stop-opacity="0.5"/>
<stop offset="0.29" stop-color="white" stop-opacity="0.1"/>
<stop offset="0.75" stop-color="#F2F2F2" stop-opacity="0.1"/>
<stop offset="1" stop-color="#F2F2F2" stop-opacity="0.2"/>
</linearGradient>
<linearGradient id="paint5_linear_7912_26096" x1="17.9013" y1="20.0334" x2="17.9013" y2="28.5262" gradientUnits="userSpaceOnUse">
<stop stop-color="white" stop-opacity="0.7"/>
<stop offset="0.29" stop-color="white" stop-opacity="0.5"/>
<stop offset="0.75" stop-color="#F2F2F2" stop-opacity="0.4"/>
<stop offset="1" stop-color="#F2F2F2" stop-opacity="0.4"/>
</linearGradient>
<linearGradient id="paint6_linear_7912_26096" x1="26.0034" y1="11.1598" x2="26.0034" y2="21.633" gradientUnits="userSpaceOnUse">
<stop stop-color="white"/>
<stop offset="0.29" stop-color="white" stop-opacity="0.8"/>
<stop offset="0.75" stop-color="#F2F2F2" stop-opacity="0.6"/>
<stop offset="1" stop-color="#F2F2F2" stop-opacity="0.4"/>
</linearGradient>
<linearGradient id="paint7_linear_7912_26096" x1="8.44678" y1="18.2908" x2="8.44678" y2="17.967" gradientUnits="userSpaceOnUse">
<stop stop-color="white" stop-opacity="0.9"/>
<stop offset="0.29" stop-color="white" stop-opacity="0.85"/>
<stop offset="0.75" stop-color="#F2F2F2" stop-opacity="0.6"/>
<stop offset="1" stop-color="#F2F2F2" stop-opacity="0.45"/>
</linearGradient>
<linearGradient id="paint8_linear_7912_26096" x1="9.85591" y1="3.75168" x2="9.85591" y2="21.7562" gradientUnits="userSpaceOnUse">
<stop stop-color="white"/>
<stop offset="0.29" stop-color="white" stop-opacity="0.9"/>
<stop offset="0.75" stop-color="#F2F2F2" stop-opacity="0.6"/>
<stop offset="1" stop-color="#F2F2F2" stop-opacity="0.45"/>
</linearGradient>
</defs>
</svg>
