<svg width="64" height="64" viewBox="0 0 64 64" fill="none" xmlns="http://www.w3.org/2000/svg">
<rect x="1.07692" y="1.07692" width="61.8462" height="61.8462" rx="30.9231" fill="#F7F7F7"/>
<rect x="1.07692" y="1.07692" width="61.8462" height="61.8462" rx="30.9231" stroke="#E2E8F0" stroke-width="1.84615"/>
<path d="M35.7558 22.2443C36.076 23.6015 37.2948 24.6126 38.7501 24.6126C40.4491 24.6126 41.8265 23.2352 41.8265 21.5362C41.8265 19.8371 40.4491 18.4597 38.7501 18.4597C37.2645 18.4597 36.0255 19.5126 35.7371 20.9131C33.2491 21.1799 31.3063 23.29 31.3063 25.8472C31.3063 25.853 31.3063 25.8573 31.3063 25.8631C28.6005 25.977 26.1299 26.7472 24.1683 27.9631C23.44 27.3991 22.5255 27.0631 21.5332 27.0631C19.152 27.0631 17.2222 28.9929 17.2222 31.3741C17.2222 33.102 18.2376 34.5905 19.7044 35.2785C19.8472 40.2833 25.3005 44.3088 32.0087 44.3088C38.7169 44.3088 44.1775 40.2789 44.313 35.2698C45.7683 34.5775 46.7751 33.0934 46.7751 31.3756C46.7751 28.9943 44.8452 27.0645 42.464 27.0645C41.476 27.0645 40.5659 27.3977 39.839 27.9573C37.8601 26.7328 35.3621 25.9626 32.6289 25.8602C32.6289 25.8559 32.6289 25.853 32.6289 25.8487C32.6289 24.0169 33.9904 22.4967 35.7558 22.2472V22.2443ZM23.9952 34.1102C24.0674 32.5467 25.1058 31.3467 26.313 31.3467C27.5202 31.3467 28.4433 32.6145 28.3712 34.178C28.2991 35.7415 27.3976 36.3097 26.189 36.3097C24.9803 36.3097 23.9231 35.6737 23.9952 34.1102ZM37.7058 31.3467C38.9145 31.3467 39.9529 32.5467 40.0236 34.1102C40.0957 35.6737 39.0371 36.3097 37.8299 36.3097C36.6227 36.3097 35.7198 35.7429 35.6476 34.178C35.5755 32.6145 36.4972 31.3467 37.7058 31.3467ZM36.2693 37.7275C36.4957 37.7506 36.64 37.9857 36.552 38.1963C35.8092 39.9717 34.0553 41.2193 32.0087 41.2193C29.9621 41.2193 28.2097 39.9717 27.4654 38.1963C27.3775 37.9857 27.5217 37.7506 27.7481 37.7275C29.0751 37.5934 30.5101 37.5198 32.0087 37.5198C33.5073 37.5198 34.9409 37.5934 36.2693 37.7275Z" fill="#263040"/>
</svg>
