<svg width="32" height="32" viewBox="0 0 32 32" fill="none" xmlns="http://www.w3.org/2000/svg">
<g clip-path="url(#clip0_3339_336)">
<path d="M22.5299 1.01379L8.74349 1C7.22699 1 6 2.24077 6 3.75727V28.5727C6 30.0892 7.22699 31.33 8.74349 31.33H22.5299C24.0464 31.33 25.2871 30.0892 25.2871 28.5727V3.75727C25.2871 2.24077 24.0464 1.01379 22.5299 1.01379ZM22.5299 25.8155H8.74349V6.51455H22.5299V25.8155ZM16.7396 17.8469V20.2596L21.1512 16.1374L16.7396 12.0291V14.3728C12.452 14.9656 10.7425 17.9021 10.1221 20.8524C11.6524 18.7844 13.679 17.8469 16.7396 17.8469Z" fill="#1D1D1D"/>
</g>
<defs>
<clipPath id="clip0_3339_336">
<rect width="32" height="32" fill="white" transform="translate(0 -0.000976562)"/>
</clipPath>
</defs>
</svg>
