<svg width="32" height="32" viewBox="0 0 32 32" fill="none" xmlns="http://www.w3.org/2000/svg">
<path d="M26.875 10.75H20.625V9.16667H26.875V10.75ZM7.34375 6C6.0498 6 5 7.0638 5 8.375V11.5417C5 12.8529 6.0498 13.9167 7.34375 13.9167H27.6562C28.9502 13.9167 30 12.8529 30 11.5417V8.375C30 7.0638 28.9502 6 27.6562 6H7.34375ZM26.875 20.25V21.8333H14.375V20.25H26.875ZM7.34375 17.0833C6.0498 17.0833 5 18.1471 5 19.4583V22.625C5 23.9362 6.0498 25 7.34375 25H27.6562C28.9502 25 30 23.9362 30 22.625V19.4583C30 18.1471 28.9502 17.0833 27.6562 17.0833H7.34375Z" fill="#1D1D1D"/>
</svg>
